# xmcd CD database file
#
# Track frame offsets:
#	150
#	31679
#	51684
#	70850
#	84016
#	96073
#	115079
#	134256
#	157438
#	185146
#	214008
#	232187
#	254542
#	273086
#	297529
#	328960
#
# Disc length: 4739 seconds
#
# Revision: 1
# Processed by: cddbd v1.5.2PL0 Copyright (c) Steve Scherf et al.
# Submitted via: CDex 1.51
#
DISCID=f8128110
DTITLE=Divers Blues - Autour Du Blues Vol. 2
DYEAR=2003
DGENRE=Blues
TTITLE0=Tanya St Val, Ahmed Mouici - Your Precious Love
TTITLE1=Beverly Jo Scott, Slim Batteux - Bad Bad Whisky
TTITLE2=Tanya St Val, Francis Cabrel - Tu Dois Partir (You Gotta Move)
TTITLE3=Beverly Jo Scott - Rock The Bop
TTITLE4=Dick Rivers - My Baby Left Me
TTITLE5=Slim Batteux - Blackjack
TTITLE6=Tanya St Val, Patrick Verbeke - Please Send Me Someone To Love
TTITLE7=JJ Goldman, Gildas Arzel, Michael Jones - Tobacco Road
TTITLE8=Tanya St Val, Paul Personne - Rock Me Babe
TTITLE9=Denys Lable - Wee Wee Hours
TTITLE10=Luc Bertin - Mojo Boogie
TTITLE11=Francis Cabrel, Patrick Verbeke - Down In Mississippi
TTITLE12=Michael Jones - Got My Mojo Working
TTITLE13=Manu Galvin, Patrick Verbeke - Let The Good Time Roll
TTITLE14=Axel Bauer - Red House
TTITLE15=Bernard Allison, Patrick Verbeke - Emily
EXTD=YEAR: 2003
EXTT0=
EXTT1=
EXTT2=
EXTT3=
EXTT4=
EXTT5=
EXTT6=
EXTT7=
EXTT8=
EXTT9=
EXTT10=
EXTT11=
EXTT12=
EXTT13=
EXTT14=
EXTT15=
PLAYORDER=
